<?xml version="1.0" encoding="UTF-8" standalone="no"?>
<!DOCTYPE svg PUBLIC "-//W3C//DTD SVG 1.1//EN"
 "http://www.w3.org/Graphics/SVG/1.1/DTD/svg11.dtd">
<!-- Generated by graphviz version 2.40.1 (20161225.0304)
 -->
<!-- Title: %3 Pages: 1 -->
<svg width="562pt" height="177pt"
 viewBox="0.00 0.00 562.44 176.90" xmlns="http://www.w3.org/2000/svg" xmlns:xlink="http://www.w3.org/1999/xlink">
<g id="graph0" class="graph" transform="scale(1 1) rotate(0) translate(4 172.9037)">
<title>%3</title>
<polygon fill="#ffffff" stroke="transparent" points="-4,4 -4,-172.9037 558.4375,-172.9037 558.4375,4 -4,4"/>
<!-- A -->
<g id="node1" class="node">
<title>A</title>
<g id="a_node1"><a xlink:title="B aHasB">
<path fill="none" stroke="#000000" d="M42,-36.9037C42,-36.9037 12,-36.9037 12,-36.9037 6,-36.9037 0,-30.9037 0,-24.9037 0,-24.9037 0,-12.9037 0,-12.9037 0,-6.9037 6,-.9037 12,-.9037 12,-.9037 42,-.9037 42,-.9037 48,-.9037 54,-6.9037 54,-12.9037 54,-12.9037 54,-24.9037 54,-24.9037 54,-30.9037 48,-36.9037 42,-36.9037"/>
<text text-anchor="middle" x="27" y="-14.7037" font-family="Helvetica,sans-Serif" font-size="14.00" fill="#008b8b">A</text>
</a>
</g>
</g>
<!-- B -->
<g id="node2" class="node">
<title>B</title>
<g id="a_node2"><a xlink:title="C bHasC&#10;D andD&#10;E andE">
<path fill="none" stroke="#000000" d="M168.0059,-93.9037C168.0059,-93.9037 138.0059,-93.9037 138.0059,-93.9037 132.0059,-93.9037 126.0059,-87.9037 126.0059,-81.9037 126.0059,-81.9037 126.0059,-69.9037 126.0059,-69.9037 126.0059,-63.9037 132.0059,-57.9037 138.0059,-57.9037 138.0059,-57.9037 168.0059,-57.9037 168.0059,-57.9037 174.0059,-57.9037 180.0059,-63.9037 180.0059,-69.9037 180.0059,-69.9037 180.0059,-81.9037 180.0059,-81.9037 180.0059,-87.9037 174.0059,-93.9037 168.0059,-93.9037"/>
<text text-anchor="middle" x="153.0059" y="-71.7037" font-family="Helvetica,sans-Serif" font-size="14.00" fill="#008b8b">B</text>
</a>
</g>
</g>
<!-- A&#45;&gt;B -->
<g id="edge1" class="edge">
<title>A&#45;&gt;B</title>
<path fill="none" stroke="#c0c0c0" d="M54.0314,-31.1316C72.1777,-39.3402 96.3112,-50.2573 116.2042,-59.2561"/>
<polygon fill="#c0c0c0" stroke="#c0c0c0" points="115.0307,-62.5666 125.5844,-63.4993 117.9158,-56.1888 115.0307,-62.5666"/>
<text text-anchor="middle" x="90.0029" y="-56.3037" font-family="Courier,monospace" font-size="12.00" fill="#404040">aHasB</text>
</g>
<!-- C -->
<g id="node3" class="node">
<title>C</title>
<g id="a_node3"><a xlink:title="D cAlsoHasD">
<path fill="none" stroke="#000000" d="M387.627,-168.9037C387.627,-168.9037 357.627,-168.9037 357.627,-168.9037 351.627,-168.9037 345.627,-162.9037 345.627,-156.9037 345.627,-156.9037 345.627,-144.9037 345.627,-144.9037 345.627,-138.9037 351.627,-132.9037 357.627,-132.9037 357.627,-132.9037 387.627,-132.9037 387.627,-132.9037 393.627,-132.9037 399.627,-138.9037 399.627,-144.9037 399.627,-144.9037 399.627,-156.9037 399.627,-156.9037 399.627,-162.9037 393.627,-168.9037 387.627,-168.9037"/>
<text text-anchor="middle" x="372.627" y="-146.7037" font-family="Helvetica,sans-Serif" font-size="14.00" fill="#008b8b">C</text>
</a>
</g>
</g>
<!-- B&#45;&gt;C -->
<g id="edge2" class="edge">
<title>B&#45;&gt;C</title>
<path fill="none" stroke="#c0c0c0" d="M168.4225,-93.9199C176.4307,-102.156 186.8621,-111.3044 198.0059,-116.9037 241.8371,-138.9269 298.4934,-146.7102 335.1911,-149.4458"/>
<polygon fill="#c0c0c0" stroke="#c0c0c0" points="335.2363,-152.9562 345.4436,-150.1172 335.6938,-145.9711 335.2363,-152.9562"/>
<text text-anchor="middle" x="262.8164" y="-150.3037" font-family="Courier,monospace" font-size="12.00" fill="#404040">bHasC</text>
</g>
<!-- D -->
<g id="node4" class="node">
<title>D</title>
<g id="a_node4"><a xlink:title="A dMischievouslyHasA">
<path fill="none" stroke="#000000" d="M542.4375,-120.9037C542.4375,-120.9037 512.4375,-120.9037 512.4375,-120.9037 506.4375,-120.9037 500.4375,-114.9037 500.4375,-108.9037 500.4375,-108.9037 500.4375,-96.9037 500.4375,-96.9037 500.4375,-90.9037 506.4375,-84.9037 512.4375,-84.9037 512.4375,-84.9037 542.4375,-84.9037 542.4375,-84.9037 548.4375,-84.9037 554.4375,-90.9037 554.4375,-96.9037 554.4375,-96.9037 554.4375,-108.9037 554.4375,-108.9037 554.4375,-114.9037 548.4375,-120.9037 542.4375,-120.9037"/>
<text text-anchor="middle" x="527.4375" y="-98.7037" font-family="Helvetica,sans-Serif" font-size="14.00" fill="#008b8b">D</text>
</a>
</g>
</g>
<!-- B&#45;&gt;D -->
<g id="edge3" class="edge">
<title>B&#45;&gt;D</title>
<path fill="none" stroke="#c0c0c0" d="M180.4805,-82.7726C186.2386,-83.9969 192.2962,-85.1275 198.0059,-85.9037 303.1981,-100.2037 428.7793,-102.7079 490.0674,-103.0012"/>
<polygon fill="#c0c0c0" stroke="#c0c0c0" points="490.3827,-106.502 500.3932,-103.0321 490.4037,-99.5021 490.3827,-106.502"/>
<text text-anchor="middle" x="372.627" y="-103.3037" font-family="Courier,monospace" font-size="12.00" fill="#404040">andD</text>
</g>
<!-- E -->
<g id="node5" class="node">
<title>E</title>
<path fill="none" stroke="#000000" d="M387.627,-66.9037C387.627,-66.9037 357.627,-66.9037 357.627,-66.9037 351.627,-66.9037 345.627,-60.9037 345.627,-54.9037 345.627,-54.9037 345.627,-42.9037 345.627,-42.9037 345.627,-36.9037 351.627,-30.9037 357.627,-30.9037 357.627,-30.9037 387.627,-30.9037 387.627,-30.9037 393.627,-30.9037 399.627,-36.9037 399.627,-42.9037 399.627,-42.9037 399.627,-54.9037 399.627,-54.9037 399.627,-60.9037 393.627,-66.9037 387.627,-66.9037"/>
<text text-anchor="middle" x="372.627" y="-44.7037" font-family="Helvetica,sans-Serif" font-size="14.00" fill="#008b8b">E</text>
</g>
<!-- B&#45;&gt;E -->
<g id="edge4" class="edge">
<title>B&#45;&gt;E</title>
<path fill="none" stroke="#c0c0c0" d="M180.377,-72.5387C219.5516,-67.7226 291.7136,-58.8511 335.6179,-53.4535"/>
<polygon fill="#c0c0c0" stroke="#c0c0c0" points="336.1026,-56.9204 345.6008,-52.2262 335.2484,-49.9727 336.1026,-56.9204"/>
<text text-anchor="middle" x="262.8164" y="-72.3037" font-family="Courier,monospace" font-size="12.00" fill="#404040">andE</text>
</g>
<!-- C&#45;&gt;D -->
<g id="edge5" class="edge">
<title>C&#45;&gt;D</title>
<path fill="none" stroke="#c0c0c0" d="M399.7066,-142.5304C421.9341,-135.6547 454.2282,-125.6589 482.4375,-116.9037 485.0577,-116.0905 487.7635,-115.2501 490.4876,-114.4036"/>
<polygon fill="#c0c0c0" stroke="#c0c0c0" points="491.8018,-117.6604 500.3119,-111.3493 489.7236,-110.976 491.8018,-117.6604"/>
<text text-anchor="middle" x="450.0322" y="-138.3037" font-family="Courier,monospace" font-size="12.00" fill="#404040">cAlsoHasD</text>
</g>
<!-- D&#45;&gt;A -->
<g id="edge6" class="edge">
<title>D&#45;&gt;A</title>
<path fill="none" stroke="#c0c0c0" d="M507.0944,-84.8354C483.2782,-64.9926 441.7104,-34.2998 399.627,-21.9037 281.5192,12.8862 133.0743,-2.3936 64.6763,-12.5244"/>
<polygon fill="#c0c0c0" stroke="#c0c0c0" points="63.758,-9.1241 54.4031,-14.0976 64.8177,-16.0435 63.758,-9.1241"/>
<text text-anchor="middle" x="262.8164" y="-9.3037" font-family="Courier,monospace" font-size="12.00" fill="#404040">dMischievouslyHasA</text>
</g>
</g>
</svg>
