<?xml version="1.0" encoding="UTF-8" standalone="no"?>
<!DOCTYPE svg PUBLIC "-//W3C//DTD SVG 1.1//EN"
 "http://www.w3.org/Graphics/SVG/1.1/DTD/svg11.dtd">
<!-- Generated by graphviz version 2.40.1 (20161225.0304)
 -->
<!-- Title: %3 Pages: 1 -->
<svg width="418pt" height="126pt"
 viewBox="0.00 0.00 418.44 126.36" xmlns="http://www.w3.org/2000/svg" xmlns:xlink="http://www.w3.org/1999/xlink">
<g id="graph0" class="graph" transform="scale(1 1) rotate(0) translate(4 122.3574)">
<title>%3</title>
<polygon fill="#ffffff" stroke="transparent" points="-4,4 -4,-122.3574 414.4375,-122.3574 414.4375,4 -4,4"/>
<!-- A -->
<g id="node1" class="node">
<title>A</title>
<g id="a_node1"><a xlink:title="B aHasB&#10;C aAlsoHasC">
<path fill="none" stroke="#000000" d="M42,-64.3574C42,-64.3574 12,-64.3574 12,-64.3574 6,-64.3574 0,-58.3574 0,-52.3574 0,-52.3574 0,-40.3574 0,-40.3574 0,-34.3574 6,-28.3574 12,-28.3574 12,-28.3574 42,-28.3574 42,-28.3574 48,-28.3574 54,-34.3574 54,-40.3574 54,-40.3574 54,-52.3574 54,-52.3574 54,-58.3574 48,-64.3574 42,-64.3574"/>
<text text-anchor="middle" x="27" y="-42.1574" font-family="Helvetica,sans-Serif" font-size="14.00" fill="#008b8b">A</text>
</a>
</g>
</g>
<!-- B -->
<g id="node2" class="node">
<title>B</title>
<g id="a_node2"><a xlink:title="D bHasD">
<path fill="none" stroke="#000000" d="M234.6211,-118.3574C234.6211,-118.3574 204.6211,-118.3574 204.6211,-118.3574 198.6211,-118.3574 192.6211,-112.3574 192.6211,-106.3574 192.6211,-106.3574 192.6211,-94.3574 192.6211,-94.3574 192.6211,-88.3574 198.6211,-82.3574 204.6211,-82.3574 204.6211,-82.3574 234.6211,-82.3574 234.6211,-82.3574 240.6211,-82.3574 246.6211,-88.3574 246.6211,-94.3574 246.6211,-94.3574 246.6211,-106.3574 246.6211,-106.3574 246.6211,-112.3574 240.6211,-118.3574 234.6211,-118.3574"/>
<text text-anchor="middle" x="219.6211" y="-96.1574" font-family="Helvetica,sans-Serif" font-size="14.00" fill="#008b8b">B</text>
</a>
</g>
</g>
<!-- A&#45;&gt;B -->
<g id="edge1" class="edge">
<title>A&#45;&gt;B</title>
<path fill="none" stroke="#c0c0c0" d="M54.4757,-56.5667C60.2338,-58.5821 66.291,-60.6115 72,-62.3574 109.2397,-73.7458 152.4425,-84.5972 182.4491,-91.7662"/>
<polygon fill="#c0c0c0" stroke="#c0c0c0" points="181.9434,-95.2433 192.481,-94.1433 183.5574,-88.4319 181.9434,-95.2433"/>
<text text-anchor="middle" x="104.4053" y="-81.7574" font-family="Courier,monospace" font-size="12.00" fill="#404040">aHasB</text>
</g>
<!-- C -->
<g id="node3" class="node">
<title>C</title>
<g id="a_node3"><a xlink:title="D cHasD">
<path fill="none" stroke="#000000" d="M234.6211,-64.3574C234.6211,-64.3574 204.6211,-64.3574 204.6211,-64.3574 198.6211,-64.3574 192.6211,-58.3574 192.6211,-52.3574 192.6211,-52.3574 192.6211,-40.3574 192.6211,-40.3574 192.6211,-34.3574 198.6211,-28.3574 204.6211,-28.3574 204.6211,-28.3574 234.6211,-28.3574 234.6211,-28.3574 240.6211,-28.3574 246.6211,-34.3574 246.6211,-40.3574 246.6211,-40.3574 246.6211,-52.3574 246.6211,-52.3574 246.6211,-58.3574 240.6211,-64.3574 234.6211,-64.3574"/>
<text text-anchor="middle" x="219.6211" y="-42.1574" font-family="Helvetica,sans-Serif" font-size="14.00" fill="#008b8b">C</text>
</a>
</g>
</g>
<!-- A&#45;&gt;C -->
<g id="edge2" class="edge">
<title>A&#45;&gt;C</title>
<path fill="none" stroke="#c0c0c0" d="M54.1894,-46.3574C87.7455,-46.3574 144.9625,-46.3574 182.5309,-46.3574"/>
<polygon fill="#c0c0c0" stroke="#c0c0c0" points="182.5701,-49.8575 192.57,-46.3574 182.57,-42.8575 182.5701,-49.8575"/>
<text text-anchor="middle" x="104.4053" y="-48.7574" font-family="Courier,monospace" font-size="12.00" fill="#404040">aAlsoHasC</text>
</g>
<!-- D -->
<g id="node4" class="node">
<title>D</title>
<g id="a_node4"><a xlink:title="A dMischievouslyHasA">
<path fill="none" stroke="#000000" d="M398.4375,-64.3574C398.4375,-64.3574 368.4375,-64.3574 368.4375,-64.3574 362.4375,-64.3574 356.4375,-58.3574 356.4375,-52.3574 356.4375,-52.3574 356.4375,-40.3574 356.4375,-40.3574 356.4375,-34.3574 362.4375,-28.3574 368.4375,-28.3574 368.4375,-28.3574 398.4375,-28.3574 398.4375,-28.3574 404.4375,-28.3574 410.4375,-34.3574 410.4375,-40.3574 410.4375,-40.3574 410.4375,-52.3574 410.4375,-52.3574 410.4375,-58.3574 404.4375,-64.3574 398.4375,-64.3574"/>
<text text-anchor="middle" x="383.4375" y="-42.1574" font-family="Helvetica,sans-Serif" font-size="14.00" fill="#008b8b">D</text>
</a>
</g>
</g>
<!-- B&#45;&gt;D -->
<g id="edge3" class="edge">
<title>B&#45;&gt;D</title>
<path fill="none" stroke="#c0c0c0" d="M247.0741,-91.8518C271.2086,-84.309 307.248,-72.8867 338.4375,-62.3574 341.1626,-61.4375 343.9753,-60.473 346.802,-59.4931"/>
<polygon fill="#c0c0c0" stroke="#c0c0c0" points="348.0793,-62.7543 356.3589,-56.1437 345.764,-56.1482 348.0793,-62.7543"/>
<text text-anchor="middle" x="320.4346" y="-75.7574" font-family="Courier,monospace" font-size="12.00" fill="#404040">bHasD</text>
</g>
<!-- C&#45;&gt;D -->
<g id="edge4" class="edge">
<title>C&#45;&gt;D</title>
<path fill="none" stroke="#c0c0c0" d="M246.672,-46.3574C273.8233,-46.3574 315.8583,-46.3574 346.1609,-46.3574"/>
<polygon fill="#c0c0c0" stroke="#c0c0c0" points="346.3464,-49.8575 356.3464,-46.3574 346.3463,-42.8575 346.3464,-49.8575"/>
<text text-anchor="middle" x="320.4346" y="-48.7574" font-family="Courier,monospace" font-size="12.00" fill="#404040">cHasD</text>
</g>
<!-- D&#45;&gt;A -->
<g id="edge5" class="edge">
<title>D&#45;&gt;A</title>
<path fill="none" stroke="#c0c0c0" d="M356.1089,-32.3663C336.6802,-23.2334 309.6599,-12.1472 284.4316,-7.3574 227.8333,3.3883 211.7894,1.1424 154.8105,-7.3574 123.4129,-12.0411 89.064,-22.8604 63.8893,-31.9179"/>
<polygon fill="#c0c0c0" stroke="#c0c0c0" points="62.5564,-28.6788 54.3773,-35.4133 64.9709,-35.2492 62.5564,-28.6788"/>
<text text-anchor="middle" x="219.6211" y="-9.7574" font-family="Courier,monospace" font-size="12.00" fill="#404040">dMischievouslyHasA</text>
</g>
</g>
</svg>
