<?xml version="1.0" encoding="UTF-8" standalone="no"?>
<!DOCTYPE svg PUBLIC "-//W3C//DTD SVG 1.1//EN"
 "http://www.w3.org/Graphics/SVG/1.1/DTD/svg11.dtd">
<!-- Generated by graphviz version 2.40.1 (20161225.0304)
 -->
<!-- Title: %3 Pages: 1 -->
<svg width="509pt" height="144pt"
 viewBox="0.00 0.00 509.36 144.00" xmlns="http://www.w3.org/2000/svg" xmlns:xlink="http://www.w3.org/1999/xlink">
<g id="graph0" class="graph" transform="scale(1 1) rotate(0) translate(4 140)">
<title>%3</title>
<polygon fill="#ffffff" stroke="transparent" points="-4,4 -4,-140 505.3623,-140 505.3623,4 -4,4"/>
<!-- AddressBook -->
<g id="node1" class="node">
<title>AddressBook</title>
<g id="a_node1"><a xlink:title="Person[] people">
<path fill="none" stroke="#000000" d="M87.4032,-36C87.4032,-36 11.8654,-36 11.8654,-36 5.8654,-36 -.1346,-30 -.1346,-24 -.1346,-24 -.1346,-12 -.1346,-12 -.1346,-6 5.8654,0 11.8654,0 11.8654,0 87.4032,0 87.4032,0 93.4032,0 99.4032,-6 99.4032,-12 99.4032,-12 99.4032,-24 99.4032,-24 99.4032,-30 93.4032,-36 87.4032,-36"/>
<text text-anchor="middle" x="49.6343" y="-13.8" font-family="Helvetica,sans-Serif" font-size="14.00" fill="#008b8b">AddressBook</text>
</a>
</g>
</g>
<!-- Person -->
<g id="node2" class="node">
<title>Person</title>
<g id="a_node2"><a xlink:title="string name&#10;int32 id&#10;string email&#10;PhoneNumber[] phones">
<path fill="none" stroke="#000000" d="M265.5372,-36C265.5372,-36 228.8183,-36 228.8183,-36 222.8183,-36 216.8183,-30 216.8183,-24 216.8183,-24 216.8183,-12 216.8183,-12 216.8183,-6 222.8183,0 228.8183,0 228.8183,0 265.5372,0 265.5372,0 271.5372,0 277.5372,-6 277.5372,-12 277.5372,-12 277.5372,-24 277.5372,-24 277.5372,-30 271.5372,-36 265.5372,-36"/>
<text text-anchor="middle" x="247.1777" y="-13.8" font-family="Helvetica,sans-Serif" font-size="14.00" fill="#008b8b">Person</text>
</a>
</g>
</g>
<!-- AddressBook&#45;&gt;Person -->
<g id="edge1" class="edge">
<title>AddressBook&#45;&gt;Person</title>
<path fill="none" stroke="#c0c0c0" stroke-dasharray="5,2" d="M99.4828,-18C132.6516,-18 175.6678,-18 206.7132,-18"/>
<polygon fill="#c0c0c0" stroke="#c0c0c0" points="206.7513,-21.5001 216.7512,-18 206.7512,-14.5001 206.7513,-21.5001"/>
<text text-anchor="middle" x="146.0732" y="-20.4" font-family="Courier,monospace" font-size="12.00" fill="#404040">people[]</text>
</g>
<!-- PhoneNumber -->
<g id="node3" class="node">
<title>PhoneNumber</title>
<g id="a_node3"><a xlink:title="string number&#10;PhoneType type">
<path fill="none" stroke="#000000" d="M489.5004,-36C489.5004,-36 406.9489,-36 406.9489,-36 400.9489,-36 394.9489,-30 394.9489,-24 394.9489,-24 394.9489,-12 394.9489,-12 394.9489,-6 400.9489,0 406.9489,0 406.9489,0 489.5004,0 489.5004,0 495.5004,0 501.5004,-6 501.5004,-12 501.5004,-12 501.5004,-24 501.5004,-24 501.5004,-30 495.5004,-36 489.5004,-36"/>
<text text-anchor="middle" x="448.2246" y="-13.8" font-family="Helvetica,sans-Serif" font-size="14.00" fill="#008b8b">PhoneNumber</text>
</a>
</g>
</g>
<!-- Person&#45;&gt;PhoneNumber -->
<g id="edge5" class="edge">
<title>Person&#45;&gt;PhoneNumber</title>
<path fill="none" stroke="#c0c0c0" stroke-dasharray="5,2" d="M277.7124,-18C306.0065,-18 348.9864,-18 384.7153,-18"/>
<polygon fill="#c0c0c0" stroke="#c0c0c0" points="385.0629,-21.5001 395.0628,-18 385.0628,-14.5001 385.0629,-21.5001"/>
<text text-anchor="middle" x="348.2822" y="-20.4" font-family="Courier,monospace" font-size="12.00" fill="#404040">phones[]</text>
</g>
<!-- My -->
<g id="node4" class="node">
<title>My</title>
<g id="a_node4"><a xlink:title="RecursiveType should&#10;bool not&#10;RecursiveType crash&#10;My code&#10;string again">
<path fill="none" stroke="#000000" d="M64.6343,-106C64.6343,-106 34.6343,-106 34.6343,-106 28.6343,-106 22.6343,-100 22.6343,-94 22.6343,-94 22.6343,-82 22.6343,-82 22.6343,-76 28.6343,-70 34.6343,-70 34.6343,-70 64.6343,-70 64.6343,-70 70.6343,-70 76.6343,-76 76.6343,-82 76.6343,-82 76.6343,-94 76.6343,-94 76.6343,-100 70.6343,-106 64.6343,-106"/>
<text text-anchor="middle" x="49.6343" y="-83.8" font-family="Helvetica,sans-Serif" font-size="14.00" fill="#008b8b">My</text>
</a>
</g>
</g>
<!-- My&#45;&gt;My -->
<g id="edge4" class="edge">
<title>My&#45;&gt;My</title>
<path fill="none" stroke="#c0c0c0" d="M32.2671,-106.1527C29.5952,-115.5391 35.3843,-124 49.6343,-124 58.3179,-124 63.8596,-120.8581 66.2595,-116.2796"/>
<polygon fill="#c0c0c0" stroke="#c0c0c0" points="69.7613,-116.3818 67.0015,-106.1527 62.78,-115.8702 69.7613,-116.3818"/>
<text text-anchor="middle" x="49.6343" y="-126.4" font-family="Courier,monospace" font-size="12.00" fill="#404040">code</text>
</g>
<!-- RecursiveType -->
<g id="node5" class="node">
<title>RecursiveType</title>
<g id="a_node5"><a xlink:title="int32 should&#10;bool not&#10;My code">
<path fill="none" stroke="#000000" d="M289.2781,-106C289.2781,-106 205.0774,-106 205.0774,-106 199.0774,-106 193.0774,-100 193.0774,-94 193.0774,-94 193.0774,-82 193.0774,-82 193.0774,-76 199.0774,-70 205.0774,-70 205.0774,-70 289.2781,-70 289.2781,-70 295.2781,-70 301.2781,-76 301.2781,-82 301.2781,-82 301.2781,-94 301.2781,-94 301.2781,-100 295.2781,-106 289.2781,-106"/>
<text text-anchor="middle" x="247.1777" y="-83.8" font-family="Helvetica,sans-Serif" font-size="14.00" fill="#008b8b">RecursiveType</text>
</a>
</g>
</g>
<!-- My&#45;&gt;RecursiveType -->
<g id="edge2" class="edge">
<title>My&#45;&gt;RecursiveType</title>
<path fill="none" stroke="#c0c0c0" d="M76.7778,-94.4383C89.0639,-97.036 103.818,-99.7191 117.2686,-101 142.7574,-103.4274 149.375,-103.2746 174.8779,-101 177.4344,-100.772 180.0357,-100.4995 182.6591,-100.1909"/>
<polygon fill="#c0c0c0" stroke="#c0c0c0" points="183.386,-103.6252 192.8383,-98.8395 182.4647,-96.6861 183.386,-103.6252"/>
<text text-anchor="middle" x="146.0732" y="-104.4" font-family="Courier,monospace" font-size="12.00" fill="#404040">should</text>
</g>
<!-- My&#45;&gt;RecursiveType -->
<g id="edge3" class="edge">
<title>My&#45;&gt;RecursiveType</title>
<path fill="none" stroke="#c0c0c0" d="M76.9441,-87.0087C89.2624,-86.6089 103.9957,-86.1962 117.2686,-86 142.8699,-85.6216 149.2762,-85.646 174.8779,-86 177.4048,-86.0349 179.9811,-86.0768 182.5836,-86.1241"/>
<polygon fill="#c0c0c0" stroke="#c0c0c0" points="182.6319,-89.6258 192.7016,-86.3318 182.7755,-82.6272 182.6319,-89.6258"/>
<text text-anchor="middle" x="146.0732" y="-88.4" font-family="Courier,monospace" font-size="12.00" fill="#404040">crash</text>
</g>
<!-- RecursiveType&#45;&gt;My -->
<g id="edge6" class="edge">
<title>RecursiveType&#45;&gt;My</title>
<path fill="none" stroke="#c0c0c0" d="M192.9947,-72.1642C186.9261,-70.8685 180.7987,-69.765 174.8779,-69 149.4848,-65.7191 142.6331,-65.5049 117.2686,-69 107.225,-70.3839 96.5729,-72.8724 86.7664,-75.6021"/>
<polygon fill="#c0c0c0" stroke="#c0c0c0" points="85.5211,-72.32 76.914,-78.498 87.4951,-79.0359 85.5211,-72.32"/>
<text text-anchor="middle" x="146.0732" y="-71.4" font-family="Courier,monospace" font-size="12.00" fill="#404040">code</text>
</g>
</g>
</svg>
