<?xml version="1.0" encoding="UTF-8" standalone="no"?>
<!DOCTYPE svg PUBLIC "-//W3C//DTD SVG 1.1//EN"
 "http://www.w3.org/Graphics/SVG/1.1/DTD/svg11.dtd">
<!-- Generated by graphviz version 2.40.1 (20161225.0304)
 -->
<!-- Title: %3 Pages: 1 -->
<svg width="464pt" height="214pt"
 viewBox="0.00 0.00 463.53 214.00" xmlns="http://www.w3.org/2000/svg" xmlns:xlink="http://www.w3.org/1999/xlink">
<g id="graph0" class="graph" transform="scale(1 1) rotate(0) translate(4 210)">
<title>%3</title>
<polygon fill="#ffffff" stroke="transparent" points="-4,4 -4,-210 459.5293,-210 459.5293,4 -4,4"/>
<!-- FeatureDatabase -->
<g id="node1" class="node">
<title>FeatureDatabase</title>
<g id="a_node1"><a xlink:title="Feature[] feature">
<path fill="none" stroke="#000000" d="M112.2682,-152C112.2682,-152 11.9105,-152 11.9105,-152 5.9105,-152 -.0895,-146 -.0895,-140 -.0895,-140 -.0895,-128 -.0895,-128 -.0895,-122 5.9105,-116 11.9105,-116 11.9105,-116 112.2682,-116 112.2682,-116 118.2682,-116 124.2682,-122 124.2682,-128 124.2682,-128 124.2682,-140 124.2682,-140 124.2682,-146 118.2682,-152 112.2682,-152"/>
<text text-anchor="middle" x="62.0894" y="-129.8" font-family="Helvetica,sans-Serif" font-size="14.00" fill="#008b8b">FeatureDatabase</text>
</a>
</g>
</g>
<!-- Feature -->
<g id="node2" class="node">
<title>Feature</title>
<g id="a_node2"><a xlink:title="string name&#10;Point location">
<path fill="none" stroke="#000000" d="M286.7031,-152C286.7031,-152 246.2061,-152 246.2061,-152 240.2061,-152 234.2061,-146 234.2061,-140 234.2061,-140 234.2061,-128 234.2061,-128 234.2061,-122 240.2061,-116 246.2061,-116 246.2061,-116 286.7031,-116 286.7031,-116 292.7031,-116 298.7031,-122 298.7031,-128 298.7031,-128 298.7031,-140 298.7031,-140 298.7031,-146 292.7031,-152 286.7031,-152"/>
<text text-anchor="middle" x="266.4546" y="-129.8" font-family="Helvetica,sans-Serif" font-size="14.00" fill="#008b8b">Feature</text>
</a>
</g>
</g>
<!-- FeatureDatabase&#45;&gt;Feature -->
<g id="edge1" class="edge">
<title>FeatureDatabase&#45;&gt;Feature</title>
<path fill="none" stroke="#c0c0c0" stroke-dasharray="5,2" d="M124.238,-134C156.5558,-134 195.2197,-134 224.0707,-134"/>
<polygon fill="#c0c0c0" stroke="#c0c0c0" points="224.226,-137.5001 234.226,-134 224.226,-130.5001 224.226,-137.5001"/>
<text text-anchor="middle" x="174.584" y="-136.4" font-family="Courier,monospace" font-size="12.00" fill="#404040">feature[]</text>
</g>
<!-- Point -->
<g id="node5" class="node">
<title>Point</title>
<g id="a_node5"><a xlink:title="int32 latitude&#10;int32 longitude">
<path fill="none" stroke="#000000" d="M443.5293,-80C443.5293,-80 413.5293,-80 413.5293,-80 407.5293,-80 401.5293,-74 401.5293,-68 401.5293,-68 401.5293,-56 401.5293,-56 401.5293,-50 407.5293,-44 413.5293,-44 413.5293,-44 443.5293,-44 443.5293,-44 449.5293,-44 455.5293,-50 455.5293,-56 455.5293,-56 455.5293,-68 455.5293,-68 455.5293,-74 449.5293,-80 443.5293,-80"/>
<text text-anchor="middle" x="428.5293" y="-57.8" font-family="Helvetica,sans-Serif" font-size="14.00" fill="#008b8b">Point</text>
</a>
</g>
</g>
<!-- Feature&#45;&gt;Point -->
<g id="edge5" class="edge">
<title>Feature&#45;&gt;Point</title>
<path fill="none" stroke="#c0c0c0" d="M298.7222,-123.7908C322.6454,-115.7658 355.7771,-103.6824 383.5293,-90 386.5003,-88.5352 389.5257,-86.9287 392.5313,-85.2493"/>
<polygon fill="#c0c0c0" stroke="#c0c0c0" points="394.5447,-88.1266 401.4148,-80.0611 391.0145,-82.0819 394.5447,-88.1266"/>
<text text-anchor="middle" x="354.7246" y="-116.4" font-family="Courier,monospace" font-size="12.00" fill="#404040">location</text>
</g>
<!-- RouteSummary -->
<g id="node3" class="node">
<title>RouteSummary</title>
<g id="a_node3"><a xlink:title="int32 point_count&#10;int32 feature_count&#10;int32 distance&#10;int32 elapsed_time">
<path fill="none" stroke="#000000" d="M106.8445,-206C106.8445,-206 17.3342,-206 17.3342,-206 11.3342,-206 5.3342,-200 5.3342,-194 5.3342,-194 5.3342,-182 5.3342,-182 5.3342,-176 11.3342,-170 17.3342,-170 17.3342,-170 106.8445,-170 106.8445,-170 112.8445,-170 118.8445,-176 118.8445,-182 118.8445,-182 118.8445,-194 118.8445,-194 118.8445,-200 112.8445,-206 106.8445,-206"/>
<text text-anchor="middle" x="62.0894" y="-183.8" font-family="Helvetica,sans-Serif" font-size="14.00" fill="#008b8b">RouteSummary</text>
</a>
</g>
</g>
<!-- RouteNote -->
<g id="node4" class="node">
<title>RouteNote</title>
<g id="a_node4"><a xlink:title="Point location&#10;string message">
<path fill="none" stroke="#000000" d="M295.8853,-98C295.8853,-98 237.0239,-98 237.0239,-98 231.0239,-98 225.0239,-92 225.0239,-86 225.0239,-86 225.0239,-74 225.0239,-74 225.0239,-68 231.0239,-62 237.0239,-62 237.0239,-62 295.8853,-62 295.8853,-62 301.8853,-62 307.8853,-68 307.8853,-74 307.8853,-74 307.8853,-86 307.8853,-86 307.8853,-92 301.8853,-98 295.8853,-98"/>
<text text-anchor="middle" x="266.4546" y="-75.8" font-family="Helvetica,sans-Serif" font-size="14.00" fill="#008b8b">RouteNote</text>
</a>
</g>
</g>
<!-- RouteNote&#45;&gt;Point -->
<g id="edge2" class="edge">
<title>RouteNote&#45;&gt;Point</title>
<path fill="none" stroke="#c0c0c0" d="M308.1929,-75.3646C333.7981,-72.5208 366.3101,-68.9101 391.0837,-66.1587"/>
<polygon fill="#c0c0c0" stroke="#c0c0c0" points="391.6319,-69.6194 401.1845,-65.0369 390.8592,-62.6622 391.6319,-69.6194"/>
<text text-anchor="middle" x="354.7246" y="-76.4" font-family="Courier,monospace" font-size="12.00" fill="#404040">location</text>
</g>
<!-- Rectangle -->
<g id="node6" class="node">
<title>Rectangle</title>
<g id="a_node6"><a xlink:title="Point lo&#10;Point hi">
<path fill="none" stroke="#000000" d="M293.9956,-36C293.9956,-36 238.9136,-36 238.9136,-36 232.9136,-36 226.9136,-30 226.9136,-24 226.9136,-24 226.9136,-12 226.9136,-12 226.9136,-6 232.9136,0 238.9136,0 238.9136,0 293.9956,0 293.9956,0 299.9956,0 305.9956,-6 305.9956,-12 305.9956,-12 305.9956,-24 305.9956,-24 305.9956,-30 299.9956,-36 293.9956,-36"/>
<text text-anchor="middle" x="266.4546" y="-13.8" font-family="Helvetica,sans-Serif" font-size="14.00" fill="#008b8b">Rectangle</text>
</a>
</g>
</g>
<!-- Rectangle&#45;&gt;Point -->
<g id="edge3" class="edge">
<title>Rectangle&#45;&gt;Point</title>
<path fill="none" stroke="#c0c0c0" d="M306.1025,-28.7636C332.246,-35.861 366.2456,-45.0912 391.7791,-52.0231"/>
<polygon fill="#c0c0c0" stroke="#c0c0c0" points="390.8938,-55.4094 401.4615,-54.6516 392.7279,-48.6539 390.8938,-55.4094"/>
<text text-anchor="middle" x="354.7246" y="-51.4" font-family="Courier,monospace" font-size="12.00" fill="#404040">lo</text>
</g>
<!-- Rectangle&#45;&gt;Point -->
<g id="edge4" class="edge">
<title>Rectangle&#45;&gt;Point</title>
<path fill="none" stroke="#c0c0c0" d="M306.097,-11.2389C329.4668,-8.9597 359.1397,-9.0995 383.5293,-19 392.7938,-22.7608 401.2401,-29.4206 408.2493,-36.3926"/>
<polygon fill="#c0c0c0" stroke="#c0c0c0" points="405.8967,-39.0031 415.2616,-43.9579 411.0306,-34.2445 405.8967,-39.0031"/>
<text text-anchor="middle" x="354.7246" y="-21.4" font-family="Courier,monospace" font-size="12.00" fill="#404040">hi</text>
</g>
</g>
</svg>
