<?xml version="1.0" encoding="UTF-8" standalone="no"?>
<!DOCTYPE svg PUBLIC "-//W3C//DTD SVG 1.1//EN"
 "http://www.w3.org/Graphics/SVG/1.1/DTD/svg11.dtd">
<!-- Generated by graphviz version 2.40.1 (20161225.0304)
 -->
<!-- Title: %3 Pages: 1 -->
<svg width="562pt" height="168pt"
 viewBox="0.00 0.00 562.44 168.10" xmlns="http://www.w3.org/2000/svg" xmlns:xlink="http://www.w3.org/1999/xlink">
<g id="graph0" class="graph" transform="scale(1 1) rotate(0) translate(4 164.1036)">
<title>%3</title>
<polygon fill="#ffffff" stroke="transparent" points="-4,4 -4,-164.1036 558.4375,-164.1036 558.4375,4 -4,4"/>
<!-- A -->
<g id="node1" class="node">
<title>A</title>
<g id="a_node1"><a xlink:title="B aHasB">
<path fill="none" stroke="#000000" d="M42,-112.1036C42,-112.1036 12,-112.1036 12,-112.1036 6,-112.1036 0,-106.1036 0,-100.1036 0,-100.1036 0,-88.1036 0,-88.1036 0,-82.1036 6,-76.1036 12,-76.1036 12,-76.1036 42,-76.1036 42,-76.1036 48,-76.1036 54,-82.1036 54,-88.1036 54,-88.1036 54,-100.1036 54,-100.1036 54,-106.1036 48,-112.1036 42,-112.1036"/>
<text text-anchor="middle" x="27" y="-89.9036" font-family="Helvetica,sans-Serif" font-size="14.00" fill="#008b8b">A</text>
</a>
</g>
</g>
<!-- B -->
<g id="node2" class="node">
<title>B</title>
<g id="a_node2"><a xlink:title="C bHasC&#10;D andD&#10;E andE">
<path fill="none" stroke="#000000" d="M168.0059,-112.1036C168.0059,-112.1036 138.0059,-112.1036 138.0059,-112.1036 132.0059,-112.1036 126.0059,-106.1036 126.0059,-100.1036 126.0059,-100.1036 126.0059,-88.1036 126.0059,-88.1036 126.0059,-82.1036 132.0059,-76.1036 138.0059,-76.1036 138.0059,-76.1036 168.0059,-76.1036 168.0059,-76.1036 174.0059,-76.1036 180.0059,-82.1036 180.0059,-88.1036 180.0059,-88.1036 180.0059,-100.1036 180.0059,-100.1036 180.0059,-106.1036 174.0059,-112.1036 168.0059,-112.1036"/>
<text text-anchor="middle" x="153.0059" y="-89.9036" font-family="Helvetica,sans-Serif" font-size="14.00" fill="#008b8b">B</text>
</a>
</g>
</g>
<!-- A&#45;&gt;B -->
<g id="edge1" class="edge">
<title>A&#45;&gt;B</title>
<path fill="none" stroke="#c0c0c0" d="M54.0314,-94.1036C71.9302,-94.1036 95.6541,-94.1036 115.388,-94.1036"/>
<polygon fill="#c0c0c0" stroke="#c0c0c0" points="115.5844,-97.6037 125.5844,-94.1036 115.5843,-90.6037 115.5844,-97.6037"/>
<text text-anchor="middle" x="90.0029" y="-96.5036" font-family="Courier,monospace" font-size="12.00" fill="#404040">aHasB</text>
</g>
<!-- C -->
<g id="node3" class="node">
<title>C</title>
<g id="a_node3"><a xlink:title="D cAlsoHasD">
<path fill="none" stroke="#000000" d="M387.627,-160.1036C387.627,-160.1036 357.627,-160.1036 357.627,-160.1036 351.627,-160.1036 345.627,-154.1036 345.627,-148.1036 345.627,-148.1036 345.627,-136.1036 345.627,-136.1036 345.627,-130.1036 351.627,-124.1036 357.627,-124.1036 357.627,-124.1036 387.627,-124.1036 387.627,-124.1036 393.627,-124.1036 399.627,-130.1036 399.627,-136.1036 399.627,-136.1036 399.627,-148.1036 399.627,-148.1036 399.627,-154.1036 393.627,-160.1036 387.627,-160.1036"/>
<text text-anchor="middle" x="372.627" y="-137.9036" font-family="Helvetica,sans-Serif" font-size="14.00" fill="#008b8b">C</text>
</a>
</g>
</g>
<!-- B&#45;&gt;C -->
<g id="edge2" class="edge">
<title>B&#45;&gt;C</title>
<path fill="none" stroke="#c0c0c0" d="M180.4766,-103.1724C186.235,-104.926 192.2937,-106.6635 198.0059,-108.1036 245.0254,-119.9575 300.0509,-130.0599 335.5773,-136.1005"/>
<polygon fill="#c0c0c0" stroke="#c0c0c0" points="335.0597,-139.5626 345.5015,-137.7685 336.2199,-132.6594 335.0597,-139.5626"/>
<text text-anchor="middle" x="262.8164" y="-136.5036" font-family="Courier,monospace" font-size="12.00" fill="#404040">bHasC</text>
</g>
<!-- D -->
<g id="node4" class="node">
<title>D</title>
<g id="a_node4"><a xlink:title="A dMischievouslyHasA">
<path fill="none" stroke="#000000" d="M542.4375,-128.1036C542.4375,-128.1036 512.4375,-128.1036 512.4375,-128.1036 506.4375,-128.1036 500.4375,-122.1036 500.4375,-116.1036 500.4375,-116.1036 500.4375,-104.1036 500.4375,-104.1036 500.4375,-98.1036 506.4375,-92.1036 512.4375,-92.1036 512.4375,-92.1036 542.4375,-92.1036 542.4375,-92.1036 548.4375,-92.1036 554.4375,-98.1036 554.4375,-104.1036 554.4375,-104.1036 554.4375,-116.1036 554.4375,-116.1036 554.4375,-122.1036 548.4375,-128.1036 542.4375,-128.1036"/>
<text text-anchor="middle" x="527.4375" y="-105.9036" font-family="Helvetica,sans-Serif" font-size="14.00" fill="#008b8b">D</text>
</a>
</g>
</g>
<!-- B&#45;&gt;D -->
<g id="edge3" class="edge">
<title>B&#45;&gt;D</title>
<path fill="none" stroke="#c0c0c0" d="M180.0175,-94.9281C225.3955,-96.3494 319.8047,-99.4615 399.627,-103.1036 429.9293,-104.4862 464.2542,-106.3845 489.697,-107.8555"/>
<polygon fill="#c0c0c0" stroke="#c0c0c0" points="489.8329,-111.3693 500.0196,-108.457 490.2402,-104.3811 489.8329,-111.3693"/>
<text text-anchor="middle" x="372.627" y="-105.5036" font-family="Courier,monospace" font-size="12.00" fill="#404040">andD</text>
</g>
<!-- E -->
<g id="node5" class="node">
<title>E</title>
<path fill="none" stroke="#000000" d="M387.627,-58.1036C387.627,-58.1036 357.627,-58.1036 357.627,-58.1036 351.627,-58.1036 345.627,-52.1036 345.627,-46.1036 345.627,-46.1036 345.627,-34.1036 345.627,-34.1036 345.627,-28.1036 351.627,-22.1036 357.627,-22.1036 357.627,-22.1036 387.627,-22.1036 387.627,-22.1036 393.627,-22.1036 399.627,-28.1036 399.627,-34.1036 399.627,-34.1036 399.627,-46.1036 399.627,-46.1036 399.627,-52.1036 393.627,-58.1036 387.627,-58.1036"/>
<text text-anchor="middle" x="372.627" y="-35.9036" font-family="Helvetica,sans-Serif" font-size="14.00" fill="#008b8b">E</text>
</g>
<!-- B&#45;&gt;E -->
<g id="edge4" class="edge">
<title>B&#45;&gt;E</title>
<path fill="none" stroke="#c0c0c0" d="M180.3272,-76.2218C185.9933,-73.1208 192.0546,-70.2185 198.0059,-68.1036 243.6912,-51.8681 299.4578,-45.0082 335.4854,-42.1349"/>
<polygon fill="#c0c0c0" stroke="#c0c0c0" points="335.8323,-45.619 345.5489,-41.3954 335.3192,-38.6378 335.8323,-45.619"/>
<text text-anchor="middle" x="262.8164" y="-70.5036" font-family="Courier,monospace" font-size="12.00" fill="#404040">andE</text>
</g>
<!-- C&#45;&gt;D -->
<g id="edge5" class="edge">
<title>C&#45;&gt;D</title>
<path fill="none" stroke="#c0c0c0" d="M399.9476,-136.4563C425.0397,-131.2696 462.4373,-123.5394 490.2468,-117.7911"/>
<polygon fill="#c0c0c0" stroke="#c0c0c0" points="491.3055,-121.1463 500.39,-115.6944 489.8885,-114.2912 491.3055,-121.1463"/>
<text text-anchor="middle" x="450.0322" y="-134.5036" font-family="Courier,monospace" font-size="12.00" fill="#404040">cAlsoHasD</text>
</g>
<!-- D&#45;&gt;A -->
<g id="edge6" class="edge">
<title>D&#45;&gt;A</title>
<path fill="none" stroke="#ff0000" d="M511.0246,-91.7853C488.5904,-68.2701 445.8294,-28.6507 399.627,-13.1036 279.4731,27.3282 130.5767,-38.0499 63.168,-73.5649"/>
<polygon fill="#ff0000" stroke="#ff0000" points="61.3711,-70.5569 54.2086,-78.3639 64.6763,-76.7275 61.3711,-70.5569"/>
<text text-anchor="middle" x="262.8164" y="-20.5036" font-family="Courier,monospace" font-size="12.00" fill="#404040">dMischievouslyHasA</text>
</g>
</g>
</svg>
