<?xml version="1.0" encoding="UTF-8" standalone="no"?>
<!DOCTYPE svg PUBLIC "-//W3C//DTD SVG 1.1//EN"
 "http://www.w3.org/Graphics/SVG/1.1/DTD/svg11.dtd">
<!-- Generated by graphviz version 2.40.1 (20161225.0304)
 -->
<!-- Title: %3 Pages: 1 -->
<svg width="562pt" height="118pt"
 viewBox="0.00 0.00 562.44 118.07" xmlns="http://www.w3.org/2000/svg" xmlns:xlink="http://www.w3.org/1999/xlink">
<g id="graph0" class="graph" transform="scale(1 1) rotate(0) translate(4 114.0735)">
<title>%3</title>
<polygon fill="#ffffff" stroke="transparent" points="-4,4 -4,-114.0735 558.4375,-114.0735 558.4375,4 -4,4"/>
<!-- A -->
<g id="node1" class="node">
<title>A</title>
<g id="a_node1"><a xlink:title="B aHasB">
<path fill="none" stroke="#000000" d="M261.6211,-52.0735C261.6211,-52.0735 231.6211,-52.0735 231.6211,-52.0735 225.6211,-52.0735 219.6211,-46.0735 219.6211,-40.0735 219.6211,-40.0735 219.6211,-28.0735 219.6211,-28.0735 219.6211,-22.0735 225.6211,-16.0735 231.6211,-16.0735 231.6211,-16.0735 261.6211,-16.0735 261.6211,-16.0735 267.6211,-16.0735 273.6211,-22.0735 273.6211,-28.0735 273.6211,-28.0735 273.6211,-40.0735 273.6211,-40.0735 273.6211,-46.0735 267.6211,-52.0735 261.6211,-52.0735"/>
<text text-anchor="middle" x="246.6211" y="-29.8735" font-family="Helvetica,sans-Serif" font-size="14.00" fill="#008b8b">A</text>
</a>
</g>
</g>
<!-- B -->
<g id="node2" class="node">
<title>B</title>
<g id="a_node2"><a xlink:title="C bHasC&#10;D andD&#10;E andE">
<path fill="none" stroke="#000000" d="M416.4316,-52.0735C416.4316,-52.0735 386.4316,-52.0735 386.4316,-52.0735 380.4316,-52.0735 374.4316,-46.0735 374.4316,-40.0735 374.4316,-40.0735 374.4316,-28.0735 374.4316,-28.0735 374.4316,-22.0735 380.4316,-16.0735 386.4316,-16.0735 386.4316,-16.0735 416.4316,-16.0735 416.4316,-16.0735 422.4316,-16.0735 428.4316,-22.0735 428.4316,-28.0735 428.4316,-28.0735 428.4316,-40.0735 428.4316,-40.0735 428.4316,-46.0735 422.4316,-52.0735 416.4316,-52.0735"/>
<text text-anchor="middle" x="401.4316" y="-29.8735" font-family="Helvetica,sans-Serif" font-size="14.00" fill="#008b8b">B</text>
</a>
</g>
</g>
<!-- A&#45;&gt;B -->
<g id="edge1" class="edge">
<title>A&#45;&gt;B</title>
<path fill="none" stroke="#c0c0c0" d="M273.9418,-34.0735C299.0339,-34.0735 336.4314,-34.0735 364.2409,-34.0735"/>
<polygon fill="#c0c0c0" stroke="#c0c0c0" points="364.3841,-37.5736 374.3841,-34.0735 364.3841,-30.5736 364.3841,-37.5736"/>
<text text-anchor="middle" x="324.0264" y="-36.4735" font-family="Courier,monospace" font-size="12.00" fill="#404040">aHasB</text>
</g>
<!-- C -->
<g id="node3" class="node">
<title>C</title>
<g id="a_node3"><a xlink:title="D cAlsoHasD">
<path fill="none" stroke="#000000" d="M542.4375,-98.0735C542.4375,-98.0735 512.4375,-98.0735 512.4375,-98.0735 506.4375,-98.0735 500.4375,-92.0735 500.4375,-86.0735 500.4375,-86.0735 500.4375,-74.0735 500.4375,-74.0735 500.4375,-68.0735 506.4375,-62.0735 512.4375,-62.0735 512.4375,-62.0735 542.4375,-62.0735 542.4375,-62.0735 548.4375,-62.0735 554.4375,-68.0735 554.4375,-74.0735 554.4375,-74.0735 554.4375,-86.0735 554.4375,-86.0735 554.4375,-92.0735 548.4375,-98.0735 542.4375,-98.0735"/>
<text text-anchor="middle" x="527.4375" y="-75.8735" font-family="Helvetica,sans-Serif" font-size="14.00" fill="#008b8b">C</text>
</a>
</g>
</g>
<!-- B&#45;&gt;C -->
<g id="edge2" class="edge">
<title>B&#45;&gt;C</title>
<path fill="none" stroke="#c0c0c0" d="M428.4631,-43.9417C446.5268,-50.5361 470.5235,-59.2964 490.3643,-66.5395"/>
<polygon fill="#c0c0c0" stroke="#c0c0c0" points="489.4221,-69.9214 500.016,-70.063 491.8226,-63.3459 489.4221,-69.9214"/>
<text text-anchor="middle" x="464.4346" y="-64.4735" font-family="Courier,monospace" font-size="12.00" fill="#404040">bHasC</text>
</g>
<!-- D -->
<g id="node4" class="node">
<title>D</title>
<g id="a_node4"><a xlink:title="A dMischievouslyHasA">
<path fill="none" stroke="#000000" d="M42,-52.0735C42,-52.0735 12,-52.0735 12,-52.0735 6,-52.0735 0,-46.0735 0,-40.0735 0,-40.0735 0,-28.0735 0,-28.0735 0,-22.0735 6,-16.0735 12,-16.0735 12,-16.0735 42,-16.0735 42,-16.0735 48,-16.0735 54,-22.0735 54,-28.0735 54,-28.0735 54,-40.0735 54,-40.0735 54,-46.0735 48,-52.0735 42,-52.0735"/>
<text text-anchor="middle" x="27" y="-29.8735" font-family="Helvetica,sans-Serif" font-size="14.00" fill="#008b8b">D</text>
</a>
</g>
</g>
<!-- B&#45;&gt;D -->
<g id="edge3" class="edge">
<title>B&#45;&gt;D</title>
<path fill="none" stroke="#ff0000" d="M392.3181,-52.1704C384.6733,-65.2226 372.4355,-81.9225 356.4316,-90.0735 323.5974,-106.7966 310.458,-93.1844 273.6211,-94.0735 183.9277,-96.2385 152.6777,-123.3252 72,-84.0735 61.0653,-78.7535 51.5811,-69.4894 44.1764,-60.3697"/>
<polygon fill="#ff0000" stroke="#ff0000" points="46.7947,-58.0288 37.9789,-52.1524 41.206,-62.2439 46.7947,-58.0288"/>
<text text-anchor="middle" x="246.6211" y="-100.4735" font-family="Courier,monospace" font-size="12.00" fill="#404040">andD</text>
</g>
<!-- E -->
<g id="node5" class="node">
<title>E</title>
<path fill="none" stroke="#000000" d="M542.4375,-44.0735C542.4375,-44.0735 512.4375,-44.0735 512.4375,-44.0735 506.4375,-44.0735 500.4375,-38.0735 500.4375,-32.0735 500.4375,-32.0735 500.4375,-20.0735 500.4375,-20.0735 500.4375,-14.0735 506.4375,-8.0735 512.4375,-8.0735 512.4375,-8.0735 542.4375,-8.0735 542.4375,-8.0735 548.4375,-8.0735 554.4375,-14.0735 554.4375,-20.0735 554.4375,-20.0735 554.4375,-32.0735 554.4375,-32.0735 554.4375,-38.0735 548.4375,-44.0735 542.4375,-44.0735"/>
<text text-anchor="middle" x="527.4375" y="-21.8735" font-family="Helvetica,sans-Serif" font-size="14.00" fill="#008b8b">E</text>
</g>
<!-- B&#45;&gt;E -->
<g id="edge4" class="edge">
<title>B&#45;&gt;E</title>
<path fill="none" stroke="#c0c0c0" d="M428.4631,-32.3573C446.3619,-31.2209 470.0857,-29.7147 489.8197,-28.4618"/>
<polygon fill="#c0c0c0" stroke="#c0c0c0" points="490.2579,-31.9412 500.016,-27.8145 489.8143,-24.9552 490.2579,-31.9412"/>
<text text-anchor="middle" x="464.4346" y="-32.4735" font-family="Courier,monospace" font-size="12.00" fill="#404040">andE</text>
</g>
<!-- C&#45;&gt;D -->
<g id="edge5" class="edge">
<title>C&#45;&gt;D</title>
<path fill="none" stroke="#ff0000" d="M508.2973,-61.9757C505.5557,-59.0902 502.8503,-56.0672 500.4375,-53.0735 491.1539,-41.5549 494.1194,-34.1509 482.4375,-25.0735 462.4593,-9.5495 453.4057,-11.1258 428.4316,-7.0735 404.7415,-3.2295 394.4118,6.2228 374.4316,-7.0735 357.1838,-18.5516 372.8846,-37.4824 356.4316,-50.0735 307.9885,-87.146 280.5798,-63.3416 219.6211,-61.0735 153.8753,-58.6274 136.3732,-63.6594 72,-50.0735 69.3532,-49.5149 66.6501,-48.8388 63.9481,-48.0843"/>
<polygon fill="#ff0000" stroke="#ff0000" points="64.8588,-44.7022 54.2707,-45.078 62.7821,-51.3871 64.8588,-44.7022"/>
<text text-anchor="middle" x="324.0264" y="-72.4735" font-family="Courier,monospace" font-size="12.00" fill="#404040">cAlsoHasD</text>
</g>
<!-- D&#45;&gt;A -->
<g id="edge6" class="edge">
<title>D&#45;&gt;A</title>
<path fill="none" stroke="#c0c0c0" d="M54.3711,-34.0735C93.4631,-34.0735 165.4034,-34.0735 209.3338,-34.0735"/>
<polygon fill="#c0c0c0" stroke="#c0c0c0" points="209.595,-37.5736 219.595,-34.0735 209.5949,-30.5736 209.595,-37.5736"/>
<text text-anchor="middle" x="136.8105" y="-36.4735" font-family="Courier,monospace" font-size="12.00" fill="#404040">dMischievouslyHasA</text>
</g>
</g>
</svg>
