<?xml version="1.0" encoding="UTF-8" standalone="no"?>
<!DOCTYPE svg PUBLIC "-//W3C//DTD SVG 1.1//EN"
 "http://www.w3.org/Graphics/SVG/1.1/DTD/svg11.dtd">
<!-- Generated by graphviz version 2.40.1 (20161225.0304)
 -->
<!-- Title: %3 Pages: 1 -->
<svg width="681pt" height="93pt"
 viewBox="0.00 0.00 681.24 93.00" xmlns="http://www.w3.org/2000/svg" xmlns:xlink="http://www.w3.org/1999/xlink">
<g id="graph0" class="graph" transform="scale(1 1) rotate(0) translate(4 89)">
<title>%3</title>
<polygon fill="#ffffff" stroke="transparent" points="-4,4 -4,-89 677.2422,-89 677.2422,4 -4,4"/>
<!-- A -->
<g id="node1" class="node">
<title>A</title>
<g id="a_node1"><a xlink:title="B aHasB">
<path fill="none" stroke="#000000" d="M416.4316,-36C416.4316,-36 386.4316,-36 386.4316,-36 380.4316,-36 374.4316,-30 374.4316,-24 374.4316,-24 374.4316,-12 374.4316,-12 374.4316,-6 380.4316,0 386.4316,0 386.4316,0 416.4316,0 416.4316,0 422.4316,0 428.4316,-6 428.4316,-12 428.4316,-12 428.4316,-24 428.4316,-24 428.4316,-30 422.4316,-36 416.4316,-36"/>
<text text-anchor="middle" x="401.4316" y="-13.8" font-family="Helvetica,sans-Serif" font-size="14.00" fill="#008b8b">A</text>
</a>
</g>
</g>
<!-- B -->
<g id="node2" class="node">
<title>B</title>
<g id="a_node2"><a xlink:title="C bHasC&#10;D andD&#10;E andE">
<path fill="none" stroke="#000000" d="M542.4375,-36C542.4375,-36 512.4375,-36 512.4375,-36 506.4375,-36 500.4375,-30 500.4375,-24 500.4375,-24 500.4375,-12 500.4375,-12 500.4375,-6 506.4375,0 512.4375,0 512.4375,0 542.4375,0 542.4375,0 548.4375,0 554.4375,-6 554.4375,-12 554.4375,-12 554.4375,-24 554.4375,-24 554.4375,-30 548.4375,-36 542.4375,-36"/>
<text text-anchor="middle" x="527.4375" y="-13.8" font-family="Helvetica,sans-Serif" font-size="14.00" fill="#008b8b">B</text>
</a>
</g>
</g>
<!-- A&#45;&gt;B -->
<g id="edge1" class="edge">
<title>A&#45;&gt;B</title>
<path fill="none" stroke="#c0c0c0" d="M428.4631,-18C446.3619,-18 470.0857,-18 489.8197,-18"/>
<polygon fill="#c0c0c0" stroke="#c0c0c0" points="490.016,-21.5001 500.016,-18 490.016,-14.5001 490.016,-21.5001"/>
<text text-anchor="middle" x="464.4346" y="-20.4" font-family="Courier,monospace" font-size="12.00" fill="#404040">aHasB</text>
</g>
<!-- C -->
<g id="node3" class="node">
<title>C</title>
<g id="a_node3"><a xlink:title="D cAlsoHasD">
<path fill="none" stroke="#000000" d="M42,-36C42,-36 12,-36 12,-36 6,-36 0,-30 0,-24 0,-24 0,-12 0,-12 0,-6 6,0 12,0 12,0 42,0 42,0 48,0 54,-6 54,-12 54,-12 54,-24 54,-24 54,-30 48,-36 42,-36"/>
<text text-anchor="middle" x="27" y="-13.8" font-family="Helvetica,sans-Serif" font-size="14.00" fill="#008b8b">C</text>
</a>
</g>
</g>
<!-- B&#45;&gt;C -->
<g id="edge2" class="edge">
<title>B&#45;&gt;C</title>
<path fill="none" stroke="#ff0000" d="M507.0859,-36.1802C499.7405,-41.9547 491.1127,-47.8986 482.4375,-52 460.118,-62.5522 452.9479,-62.0908 428.4316,-65 270.5274,-83.7373 226.4018,-72.0122 72,-34 69.3733,-33.3533 66.6852,-32.6116 63.9941,-31.8096"/>
<polygon fill="#ff0000" stroke="#ff0000" points="64.9309,-28.4344 54.3395,-28.7033 62.7869,-35.098 64.9309,-28.4344"/>
<text text-anchor="middle" x="291.6211" y="-75.4" font-family="Courier,monospace" font-size="12.00" fill="#404040">bHasC</text>
</g>
<!-- D -->
<g id="node4" class="node">
<title>D</title>
<g id="a_node4"><a xlink:title="A dMischievouslyHasA">
<path fill="none" stroke="#000000" d="M196.8105,-36C196.8105,-36 166.8105,-36 166.8105,-36 160.8105,-36 154.8105,-30 154.8105,-24 154.8105,-24 154.8105,-12 154.8105,-12 154.8105,-6 160.8105,0 166.8105,0 166.8105,0 196.8105,0 196.8105,0 202.8105,0 208.8105,-6 208.8105,-12 208.8105,-12 208.8105,-24 208.8105,-24 208.8105,-30 202.8105,-36 196.8105,-36"/>
<text text-anchor="middle" x="181.8105" y="-13.8" font-family="Helvetica,sans-Serif" font-size="14.00" fill="#008b8b">D</text>
</a>
</g>
</g>
<!-- B&#45;&gt;D -->
<g id="edge3" class="edge">
<title>B&#45;&gt;D</title>
<path fill="none" stroke="#ff0000" d="M500.0279,-28.4358C494.2651,-30.4348 488.1892,-32.4003 482.4375,-34 458.8379,-40.5638 452.8036,-42.5432 428.4316,-45 339.1415,-54.001 314.6189,-52.5319 226.8105,-34 224.1637,-33.4414 221.4606,-32.7653 218.7587,-32.0107"/>
<polygon fill="#ff0000" stroke="#ff0000" points="219.6694,-28.6287 209.0812,-29.0044 217.5927,-35.3136 219.6694,-28.6287"/>
<text text-anchor="middle" x="401.4316" y="-51.4" font-family="Courier,monospace" font-size="12.00" fill="#404040">andD</text>
</g>
<!-- E -->
<g id="node5" class="node">
<title>E</title>
<path fill="none" stroke="#000000" d="M661.2422,-36C661.2422,-36 631.2422,-36 631.2422,-36 625.2422,-36 619.2422,-30 619.2422,-24 619.2422,-24 619.2422,-12 619.2422,-12 619.2422,-6 625.2422,0 631.2422,0 631.2422,0 661.2422,0 661.2422,0 667.2422,0 673.2422,-6 673.2422,-12 673.2422,-12 673.2422,-24 673.2422,-24 673.2422,-30 667.2422,-36 661.2422,-36"/>
<text text-anchor="middle" x="646.2422" y="-13.8" font-family="Helvetica,sans-Serif" font-size="14.00" fill="#008b8b">E</text>
</g>
<!-- B&#45;&gt;E -->
<g id="edge4" class="edge">
<title>B&#45;&gt;E</title>
<path fill="none" stroke="#c0c0c0" d="M554.6937,-18C570.692,-18 591.1421,-18 608.6545,-18"/>
<polygon fill="#c0c0c0" stroke="#c0c0c0" points="609.1129,-21.5001 619.1128,-18 609.1128,-14.5001 609.1129,-21.5001"/>
<text text-anchor="middle" x="586.8398" y="-20.4" font-family="Courier,monospace" font-size="12.00" fill="#404040">andE</text>
</g>
<!-- C&#45;&gt;D -->
<g id="edge5" class="edge">
<title>C&#45;&gt;D</title>
<path fill="none" stroke="#c0c0c0" d="M54.3207,-18C79.4128,-18 116.8103,-18 144.6198,-18"/>
<polygon fill="#c0c0c0" stroke="#c0c0c0" points="144.763,-21.5001 154.763,-18 144.763,-14.5001 144.763,-21.5001"/>
<text text-anchor="middle" x="104.4053" y="-20.4" font-family="Courier,monospace" font-size="12.00" fill="#404040">cAlsoHasD</text>
</g>
<!-- D&#45;&gt;A -->
<g id="edge6" class="edge">
<title>D&#45;&gt;A</title>
<path fill="none" stroke="#c0c0c0" d="M209.1817,-18C248.2736,-18 320.214,-18 364.1444,-18"/>
<polygon fill="#c0c0c0" stroke="#c0c0c0" points="364.4055,-21.5001 374.4055,-18 364.4055,-14.5001 364.4055,-21.5001"/>
<text text-anchor="middle" x="291.6211" y="-20.4" font-family="Courier,monospace" font-size="12.00" fill="#404040">dMischievouslyHasA</text>
</g>
</g>
</svg>
