<?xml version="1.0" encoding="UTF-8" standalone="no"?>
<!DOCTYPE svg PUBLIC "-//W3C//DTD SVG 1.1//EN"
 "http://www.w3.org/Graphics/SVG/1.1/DTD/svg11.dtd">
<!-- Generated by graphviz version 2.40.1 (20161225.0304)
 -->
<!-- Title: %3 Pages: 1 -->
<svg width="418pt" height="130pt"
 viewBox="0.00 0.00 418.44 130.32" xmlns="http://www.w3.org/2000/svg" xmlns:xlink="http://www.w3.org/1999/xlink">
<g id="graph0" class="graph" transform="scale(1 1) rotate(0) translate(4 126.3205)">
<title>%3</title>
<polygon fill="#ffffff" stroke="transparent" points="-4,4 -4,-126.3205 414.4375,-126.3205 414.4375,4 -4,4"/>
<!-- A -->
<g id="node1" class="node">
<title>A</title>
<g id="a_node1"><a xlink:title="B aHasB&#10;C aAlsoHasC">
<path fill="none" stroke="#000000" d="M42,-94.3205C42,-94.3205 12,-94.3205 12,-94.3205 6,-94.3205 0,-88.3205 0,-82.3205 0,-82.3205 0,-70.3205 0,-70.3205 0,-64.3205 6,-58.3205 12,-58.3205 12,-58.3205 42,-58.3205 42,-58.3205 48,-58.3205 54,-64.3205 54,-70.3205 54,-70.3205 54,-82.3205 54,-82.3205 54,-88.3205 48,-94.3205 42,-94.3205"/>
<text text-anchor="middle" x="27" y="-72.1205" font-family="Helvetica,sans-Serif" font-size="14.00" fill="#008b8b">A</text>
</a>
</g>
</g>
<!-- B -->
<g id="node2" class="node">
<title>B</title>
<g id="a_node2"><a xlink:title="D bHasD">
<path fill="none" stroke="#000000" d="M234.6211,-122.3205C234.6211,-122.3205 204.6211,-122.3205 204.6211,-122.3205 198.6211,-122.3205 192.6211,-116.3205 192.6211,-110.3205 192.6211,-110.3205 192.6211,-98.3205 192.6211,-98.3205 192.6211,-92.3205 198.6211,-86.3205 204.6211,-86.3205 204.6211,-86.3205 234.6211,-86.3205 234.6211,-86.3205 240.6211,-86.3205 246.6211,-92.3205 246.6211,-98.3205 246.6211,-98.3205 246.6211,-110.3205 246.6211,-110.3205 246.6211,-116.3205 240.6211,-122.3205 234.6211,-122.3205"/>
<text text-anchor="middle" x="219.6211" y="-100.1205" font-family="Helvetica,sans-Serif" font-size="14.00" fill="#008b8b">B</text>
</a>
</g>
</g>
<!-- A&#45;&gt;B -->
<g id="edge1" class="edge">
<title>A&#45;&gt;B</title>
<path fill="none" stroke="#c0c0c0" d="M54.1894,-80.2728C87.7455,-85.1506 144.9625,-93.4679 182.5309,-98.9289"/>
<polygon fill="#c0c0c0" stroke="#c0c0c0" points="182.1705,-102.4133 192.57,-100.3883 183.1776,-95.4861 182.1705,-102.4133"/>
<text text-anchor="middle" x="104.4053" y="-93.7205" font-family="Courier,monospace" font-size="12.00" fill="#404040">aHasB</text>
</g>
<!-- C -->
<g id="node3" class="node">
<title>C</title>
<g id="a_node3"><a xlink:title="D cHasD">
<path fill="none" stroke="#000000" d="M234.6211,-68.3205C234.6211,-68.3205 204.6211,-68.3205 204.6211,-68.3205 198.6211,-68.3205 192.6211,-62.3205 192.6211,-56.3205 192.6211,-56.3205 192.6211,-44.3205 192.6211,-44.3205 192.6211,-38.3205 198.6211,-32.3205 204.6211,-32.3205 204.6211,-32.3205 234.6211,-32.3205 234.6211,-32.3205 240.6211,-32.3205 246.6211,-38.3205 246.6211,-44.3205 246.6211,-44.3205 246.6211,-56.3205 246.6211,-56.3205 246.6211,-62.3205 240.6211,-68.3205 234.6211,-68.3205"/>
<text text-anchor="middle" x="219.6211" y="-46.1205" font-family="Helvetica,sans-Serif" font-size="14.00" fill="#008b8b">C</text>
</a>
</g>
</g>
<!-- A&#45;&gt;C -->
<g id="edge2" class="edge">
<title>A&#45;&gt;C</title>
<path fill="none" stroke="#c0c0c0" d="M54.0002,-69.0777C59.9004,-67.6755 66.1348,-66.3303 72,-65.3205 109.3572,-58.8885 152.5424,-54.8948 182.5128,-52.6614"/>
<polygon fill="#c0c0c0" stroke="#c0c0c0" points="182.807,-56.1494 192.5314,-51.9437 182.3068,-49.1673 182.807,-56.1494"/>
<text text-anchor="middle" x="104.4053" y="-67.7205" font-family="Courier,monospace" font-size="12.00" fill="#404040">aAlsoHasC</text>
</g>
<!-- D -->
<g id="node4" class="node">
<title>D</title>
<g id="a_node4"><a xlink:title="A dMischievouslyHasA">
<path fill="none" stroke="#000000" d="M398.4375,-94.3205C398.4375,-94.3205 368.4375,-94.3205 368.4375,-94.3205 362.4375,-94.3205 356.4375,-88.3205 356.4375,-82.3205 356.4375,-82.3205 356.4375,-70.3205 356.4375,-70.3205 356.4375,-64.3205 362.4375,-58.3205 368.4375,-58.3205 368.4375,-58.3205 398.4375,-58.3205 398.4375,-58.3205 404.4375,-58.3205 410.4375,-64.3205 410.4375,-70.3205 410.4375,-70.3205 410.4375,-82.3205 410.4375,-82.3205 410.4375,-88.3205 404.4375,-94.3205 398.4375,-94.3205"/>
<text text-anchor="middle" x="383.4375" y="-72.1205" font-family="Helvetica,sans-Serif" font-size="14.00" fill="#008b8b">D</text>
</a>
</g>
</g>
<!-- B&#45;&gt;D -->
<g id="edge3" class="edge">
<title>B&#45;&gt;D</title>
<path fill="none" stroke="#c0c0c0" d="M246.672,-99.6969C273.8233,-95.0561 315.8583,-87.8713 346.1609,-82.6919"/>
<polygon fill="#c0c0c0" stroke="#c0c0c0" points="347.079,-86.0858 356.3464,-80.951 345.8996,-79.1859 347.079,-86.0858"/>
<text text-anchor="middle" x="320.4346" y="-91.7205" font-family="Courier,monospace" font-size="12.00" fill="#404040">bHasD</text>
</g>
<!-- C&#45;&gt;D -->
<g id="edge4" class="edge">
<title>C&#45;&gt;D</title>
<path fill="none" stroke="#c0c0c0" d="M246.6541,-52.8449C270.825,-55.3128 307.1556,-59.5421 338.4375,-65.3205 341.0894,-65.8103 343.8186,-66.3606 346.5594,-66.947"/>
<polygon fill="#c0c0c0" stroke="#c0c0c0" points="345.8912,-70.3843 356.418,-69.1857 347.4413,-63.5581 345.8912,-70.3843"/>
<text text-anchor="middle" x="320.4346" y="-67.7205" font-family="Courier,monospace" font-size="12.00" fill="#404040">cHasD</text>
</g>
<!-- D&#45;&gt;A -->
<g id="edge5" class="edge">
<title>D&#45;&gt;A</title>
<path fill="none" stroke="#ff0000" d="M363.6244,-58.2137C344.821,-42.3516 314.9674,-20.4485 284.4316,-11.3205 229.2356,5.1793 210.9047,1.8054 154.8105,-11.3205 114.8221,-20.6777 108.525,-33.544 72,-52.3205 69.0864,-53.8183 66.075,-55.3845 63.0549,-56.968"/>
<polygon fill="#ff0000" stroke="#ff0000" points="61.266,-53.9546 54.0578,-61.7195 64.5349,-60.1444 61.266,-53.9546"/>
<text text-anchor="middle" x="219.6211" y="-13.7205" font-family="Courier,monospace" font-size="12.00" fill="#404040">dMischievouslyHasA</text>
</g>
</g>
</svg>
